<mxfile host="Electron" modified="2025-01-07T07:26:10.785Z" agent="Mozilla/5.0 (X11; Linux x86_64) AppleWebKit/537.36 (KHTML, like Gecko) draw.io/24.6.4 Chrome/124.0.6367.207 Electron/30.0.6 Safari/537.36" etag="R9Z6Yyw3PNNDhCuVz6us" version="24.6.4" type="device">
  <diagram name="Page-1" id="5f0bae14-7c28-e335-631c-24af17079c00">
    <mxGraphModel dx="1185" dy="779" grid="1" gridSize="10" guides="1" tooltips="1" connect="1" arrows="1" fold="1" page="1" pageScale="1" pageWidth="1100" pageHeight="850" background="none" math="0" shadow="0">
      <root>
        <mxCell id="0" />
        <mxCell id="1" parent="0" />
        <mxCell id="zLHpc_LP7oTZizmcBeUN-13" style="edgeStyle=orthogonalEdgeStyle;rounded=0;orthogonalLoop=1;jettySize=auto;html=1;exitX=1;exitY=0.5;exitDx=0;exitDy=0;entryX=0;entryY=0.5;entryDx=0;entryDy=0;" edge="1" parent="1" source="ispf3cTAjHFTwqw6l8b9-2" target="zLHpc_LP7oTZizmcBeUN-8">
          <mxGeometry relative="1" as="geometry" />
        </mxCell>
        <mxCell id="ispf3cTAjHFTwqw6l8b9-2" value="" style="ellipse;fillColor=strokeColor;html=1;" parent="1" vertex="1">
          <mxGeometry x="125" y="70" width="30" height="30" as="geometry" />
        </mxCell>
        <mxCell id="ispf3cTAjHFTwqw6l8b9-28" style="edgeStyle=none;shape=connector;rounded=0;orthogonalLoop=1;jettySize=auto;html=1;exitX=0;exitY=0.5;exitDx=0;exitDy=0;strokeColor=default;align=center;verticalAlign=middle;fontFamily=Helvetica;fontSize=11;fontColor=default;labelBackgroundColor=default;startArrow=classic;startFill=1;endArrow=none;endFill=0;" parent="1" edge="1">
          <mxGeometry relative="1" as="geometry">
            <mxPoint x="410" y="85" as="sourcePoint" />
            <mxPoint x="320" y="85" as="targetPoint" />
          </mxGeometry>
        </mxCell>
        <mxCell id="ispf3cTAjHFTwqw6l8b9-27" value="Press start&lt;div&gt;exercises button&lt;/div&gt;" style="text;html=1;align=center;verticalAlign=middle;whiteSpace=wrap;rounded=0;" parent="1" vertex="1">
          <mxGeometry x="330" y="40" width="60" height="30" as="geometry" />
        </mxCell>
        <mxCell id="ispf3cTAjHFTwqw6l8b9-34" value="" style="rounded=1;whiteSpace=wrap;html=1;fontFamily=Helvetica;fontSize=11;fontColor=default;labelBackgroundColor=default;connectable=0;" parent="1" vertex="1">
          <mxGeometry x="50" y="300" width="810" height="390" as="geometry" />
        </mxCell>
        <mxCell id="ispf3cTAjHFTwqw6l8b9-35" value="" style="endArrow=none;html=1;rounded=0;strokeColor=default;align=center;verticalAlign=middle;fontFamily=Helvetica;fontSize=11;fontColor=default;labelBackgroundColor=default;exitX=0.002;exitY=0.154;exitDx=0;exitDy=0;entryX=1;entryY=0.15;entryDx=0;entryDy=0;entryPerimeter=0;exitPerimeter=0;" parent="1" edge="1">
          <mxGeometry width="50" height="50" relative="1" as="geometry">
            <mxPoint x="51.62000000000012" y="341.55999999999995" as="sourcePoint" />
            <mxPoint x="860" y="340" as="targetPoint" />
          </mxGeometry>
        </mxCell>
        <mxCell id="ispf3cTAjHFTwqw6l8b9-36" value="Exercise Set" style="text;html=1;align=center;verticalAlign=middle;whiteSpace=wrap;rounded=0;fontFamily=Helvetica;fontSize=11;fontColor=default;labelBackgroundColor=default;" parent="1" vertex="1">
          <mxGeometry x="440" y="300" width="80" height="40" as="geometry" />
        </mxCell>
        <mxCell id="ispf3cTAjHFTwqw6l8b9-49" style="edgeStyle=none;shape=connector;rounded=0;orthogonalLoop=1;jettySize=auto;html=1;exitX=1;exitY=1;exitDx=0;exitDy=0;entryX=0;entryY=0.5;entryDx=0;entryDy=0;strokeColor=default;align=center;verticalAlign=middle;fontFamily=Helvetica;fontSize=11;fontColor=default;labelBackgroundColor=default;startArrow=none;startFill=0;endArrow=classic;endFill=1;" parent="1" source="ispf3cTAjHFTwqw6l8b9-37" target="ispf3cTAjHFTwqw6l8b9-47" edge="1">
          <mxGeometry relative="1" as="geometry" />
        </mxCell>
        <mxCell id="ispf3cTAjHFTwqw6l8b9-37" value="" style="ellipse;fillColor=strokeColor;html=1;" parent="1" vertex="1">
          <mxGeometry x="70" y="390" width="30" height="30" as="geometry" />
        </mxCell>
        <mxCell id="ispf3cTAjHFTwqw6l8b9-38" value="" style="ellipse;shape=doubleEllipse;whiteSpace=wrap;html=1;fontFamily=Helvetica;fontSize=11;fontColor=default;labelBackgroundColor=default;fillStyle=solid;strokeColor=#FFFFFF;fillColor=#000000;" parent="1" vertex="1">
          <mxGeometry x="820" y="450" width="30" height="30" as="geometry" />
        </mxCell>
        <mxCell id="ispf3cTAjHFTwqw6l8b9-51" style="edgeStyle=orthogonalEdgeStyle;shape=connector;rounded=0;orthogonalLoop=1;jettySize=auto;html=1;exitX=0.5;exitY=0;exitDx=0;exitDy=0;strokeColor=default;align=center;verticalAlign=middle;fontFamily=Helvetica;fontSize=11;fontColor=default;labelBackgroundColor=default;startArrow=none;startFill=0;endArrow=classic;endFill=1;" parent="1" source="ispf3cTAjHFTwqw6l8b9-47" target="ispf3cTAjHFTwqw6l8b9-50" edge="1">
          <mxGeometry relative="1" as="geometry" />
        </mxCell>
        <mxCell id="ispf3cTAjHFTwqw6l8b9-54" value="Voice based&lt;div&gt;exercise is&amp;nbsp;&lt;/div&gt;&lt;div&gt;activated&amp;nbsp;&lt;/div&gt;" style="edgeLabel;html=1;align=center;verticalAlign=middle;resizable=0;points=[];fontFamily=Helvetica;fontSize=11;fontColor=default;labelBackgroundColor=default;" parent="ispf3cTAjHFTwqw6l8b9-51" vertex="1" connectable="0">
          <mxGeometry x="-0.3333" y="1" relative="1" as="geometry">
            <mxPoint x="-20" y="-4" as="offset" />
          </mxGeometry>
        </mxCell>
        <mxCell id="ispf3cTAjHFTwqw6l8b9-53" style="edgeStyle=orthogonalEdgeStyle;shape=connector;rounded=0;orthogonalLoop=1;jettySize=auto;html=1;exitX=0.5;exitY=1;exitDx=0;exitDy=0;entryX=0;entryY=0.5;entryDx=0;entryDy=0;strokeColor=default;align=center;verticalAlign=middle;fontFamily=Helvetica;fontSize=11;fontColor=default;labelBackgroundColor=default;startArrow=none;startFill=0;endArrow=classic;endFill=1;" parent="1" source="ispf3cTAjHFTwqw6l8b9-47" target="ispf3cTAjHFTwqw6l8b9-52" edge="1">
          <mxGeometry relative="1" as="geometry" />
        </mxCell>
        <mxCell id="ispf3cTAjHFTwqw6l8b9-55" value="Text based&amp;nbsp;&lt;div&gt;exercise is&amp;nbsp;&lt;/div&gt;&lt;div&gt;activated&lt;br&gt;&lt;/div&gt;" style="edgeLabel;html=1;align=center;verticalAlign=middle;resizable=0;points=[];fontFamily=Helvetica;fontSize=11;fontColor=default;labelBackgroundColor=default;" parent="ispf3cTAjHFTwqw6l8b9-53" vertex="1" connectable="0">
          <mxGeometry x="-0.38" y="1" relative="1" as="geometry">
            <mxPoint x="-11" y="11" as="offset" />
          </mxGeometry>
        </mxCell>
        <mxCell id="ispf3cTAjHFTwqw6l8b9-47" value="" style="rhombus;whiteSpace=wrap;html=1;fontFamily=Helvetica;fontSize=11;fontColor=default;labelBackgroundColor=default;" parent="1" vertex="1">
          <mxGeometry x="140" y="430" width="60" height="60" as="geometry" />
        </mxCell>
        <mxCell id="ispf3cTAjHFTwqw6l8b9-57" value="" style="edgeStyle=orthogonalEdgeStyle;shape=connector;rounded=0;orthogonalLoop=1;jettySize=auto;html=1;strokeColor=default;align=center;verticalAlign=middle;fontFamily=Helvetica;fontSize=11;fontColor=default;labelBackgroundColor=default;startArrow=none;startFill=0;endArrow=classic;endFill=1;" parent="1" source="ispf3cTAjHFTwqw6l8b9-50" target="ispf3cTAjHFTwqw6l8b9-56" edge="1">
          <mxGeometry relative="1" as="geometry" />
        </mxCell>
        <mxCell id="ispf3cTAjHFTwqw6l8b9-60" value="Clicked&amp;nbsp;&lt;div&gt;&quot;start&amp;nbsp;&lt;/div&gt;&lt;div&gt;recording&quot;&lt;/div&gt;" style="edgeLabel;html=1;align=center;verticalAlign=middle;resizable=0;points=[];fontFamily=Helvetica;fontSize=11;fontColor=default;labelBackgroundColor=default;" parent="ispf3cTAjHFTwqw6l8b9-57" vertex="1" connectable="0">
          <mxGeometry x="-0.136" relative="1" as="geometry">
            <mxPoint as="offset" />
          </mxGeometry>
        </mxCell>
        <mxCell id="ispf3cTAjHFTwqw6l8b9-50" value="Showing exercise" style="html=1;align=center;verticalAlign=top;rounded=1;absoluteArcSize=1;arcSize=10;dashed=0;whiteSpace=wrap;" parent="1" vertex="1">
          <mxGeometry x="210" y="390" width="70" height="40" as="geometry" />
        </mxCell>
        <mxCell id="ispf3cTAjHFTwqw6l8b9-59" value="" style="edgeStyle=orthogonalEdgeStyle;shape=connector;rounded=0;orthogonalLoop=1;jettySize=auto;html=1;strokeColor=default;align=center;verticalAlign=middle;fontFamily=Helvetica;fontSize=11;fontColor=default;labelBackgroundColor=default;startArrow=none;startFill=0;endArrow=classic;endFill=1;" parent="1" source="ispf3cTAjHFTwqw6l8b9-52" target="ispf3cTAjHFTwqw6l8b9-58" edge="1">
          <mxGeometry relative="1" as="geometry" />
        </mxCell>
        <mxCell id="ispf3cTAjHFTwqw6l8b9-61" value="Typed&lt;div&gt;answers&lt;/div&gt;&lt;div&gt;and clicked submit&lt;/div&gt;" style="edgeLabel;html=1;align=center;verticalAlign=middle;resizable=0;points=[];fontFamily=Helvetica;fontSize=11;fontColor=default;labelBackgroundColor=default;" parent="ispf3cTAjHFTwqw6l8b9-59" vertex="1" connectable="0">
          <mxGeometry x="0.0667" relative="1" as="geometry">
            <mxPoint x="-7" as="offset" />
          </mxGeometry>
        </mxCell>
        <mxCell id="ispf3cTAjHFTwqw6l8b9-52" value="Showing exercise" style="html=1;align=center;verticalAlign=top;rounded=1;absoluteArcSize=1;arcSize=10;dashed=0;whiteSpace=wrap;" parent="1" vertex="1">
          <mxGeometry x="210" y="490" width="70" height="40" as="geometry" />
        </mxCell>
        <mxCell id="ispf3cTAjHFTwqw6l8b9-63" value="" style="edgeStyle=orthogonalEdgeStyle;shape=connector;rounded=0;orthogonalLoop=1;jettySize=auto;html=1;strokeColor=default;align=center;verticalAlign=middle;fontFamily=Helvetica;fontSize=11;fontColor=default;labelBackgroundColor=default;startArrow=none;startFill=0;endArrow=classic;endFill=1;" parent="1" source="ispf3cTAjHFTwqw6l8b9-56" target="ispf3cTAjHFTwqw6l8b9-62" edge="1">
          <mxGeometry relative="1" as="geometry" />
        </mxCell>
        <mxCell id="ispf3cTAjHFTwqw6l8b9-56" value="Recording&lt;div&gt;audio&lt;/div&gt;" style="html=1;align=center;verticalAlign=top;rounded=1;absoluteArcSize=1;arcSize=10;dashed=0;whiteSpace=wrap;" parent="1" vertex="1">
          <mxGeometry x="360" y="390" width="70" height="40" as="geometry" />
        </mxCell>
        <mxCell id="ispf3cTAjHFTwqw6l8b9-70" style="edgeStyle=orthogonalEdgeStyle;shape=connector;rounded=0;orthogonalLoop=1;jettySize=auto;html=1;exitX=1;exitY=0.5;exitDx=0;exitDy=0;entryX=0;entryY=0.5;entryDx=0;entryDy=0;strokeColor=default;align=center;verticalAlign=middle;fontFamily=Helvetica;fontSize=11;fontColor=default;labelBackgroundColor=default;startArrow=none;startFill=0;endArrow=classic;endFill=1;" parent="1" source="ispf3cTAjHFTwqw6l8b9-58" target="ispf3cTAjHFTwqw6l8b9-69" edge="1">
          <mxGeometry relative="1" as="geometry" />
        </mxCell>
        <mxCell id="ispf3cTAjHFTwqw6l8b9-71" value="timer end" style="edgeLabel;html=1;align=center;verticalAlign=middle;resizable=0;points=[];fontFamily=Helvetica;fontSize=11;fontColor=default;labelBackgroundColor=default;" parent="ispf3cTAjHFTwqw6l8b9-70" vertex="1" connectable="0">
          <mxGeometry x="-0.0306" y="2" relative="1" as="geometry">
            <mxPoint as="offset" />
          </mxGeometry>
        </mxCell>
        <mxCell id="ispf3cTAjHFTwqw6l8b9-58" value="Showing&amp;nbsp;&lt;div&gt;Results&lt;/div&gt;" style="html=1;align=center;verticalAlign=top;rounded=1;absoluteArcSize=1;arcSize=10;dashed=0;whiteSpace=wrap;" parent="1" vertex="1">
          <mxGeometry x="510" y="490" width="70" height="40" as="geometry" />
        </mxCell>
        <mxCell id="zLHpc_LP7oTZizmcBeUN-5" style="edgeStyle=orthogonalEdgeStyle;rounded=0;orthogonalLoop=1;jettySize=auto;html=1;exitX=0.5;exitY=1;exitDx=0;exitDy=0;entryX=0.5;entryY=0;entryDx=0;entryDy=0;" edge="1" parent="1" source="ispf3cTAjHFTwqw6l8b9-62" target="ispf3cTAjHFTwqw6l8b9-58">
          <mxGeometry relative="1" as="geometry" />
        </mxCell>
        <mxCell id="zLHpc_LP7oTZizmcBeUN-6" value="Clicked submit" style="edgeLabel;html=1;align=center;verticalAlign=middle;resizable=0;points=[];" vertex="1" connectable="0" parent="zLHpc_LP7oTZizmcBeUN-5">
          <mxGeometry x="-0.1619" y="-2" relative="1" as="geometry">
            <mxPoint as="offset" />
          </mxGeometry>
        </mxCell>
        <mxCell id="ispf3cTAjHFTwqw6l8b9-62" value="Showing&amp;nbsp;&lt;div&gt;audio recording&lt;/div&gt;&lt;div&gt;results&lt;/div&gt;" style="html=1;align=center;verticalAlign=top;rounded=1;absoluteArcSize=1;arcSize=10;dashed=0;whiteSpace=wrap;" parent="1" vertex="1">
          <mxGeometry x="510" y="375" width="70" height="70" as="geometry" />
        </mxCell>
        <mxCell id="ispf3cTAjHFTwqw6l8b9-64" value="Clicked&amp;nbsp;&lt;div&gt;&quot;stop&amp;nbsp;&lt;/div&gt;&lt;div&gt;recording&quot;&lt;/div&gt;" style="edgeLabel;html=1;align=center;verticalAlign=middle;resizable=0;points=[];fontFamily=Helvetica;fontSize=11;fontColor=default;labelBackgroundColor=default;" parent="1" vertex="1" connectable="0">
          <mxGeometry x="470.0000000000001" y="410" as="geometry" />
        </mxCell>
        <mxCell id="ispf3cTAjHFTwqw6l8b9-72" style="edgeStyle=orthogonalEdgeStyle;shape=connector;rounded=0;orthogonalLoop=1;jettySize=auto;html=1;exitX=0.5;exitY=0;exitDx=0;exitDy=0;strokeColor=default;align=center;verticalAlign=middle;fontFamily=Helvetica;fontSize=11;fontColor=default;labelBackgroundColor=default;startArrow=none;startFill=0;endArrow=classic;endFill=1;" parent="1" source="ispf3cTAjHFTwqw6l8b9-69" target="ispf3cTAjHFTwqw6l8b9-97" edge="1">
          <mxGeometry relative="1" as="geometry" />
        </mxCell>
        <mxCell id="ispf3cTAjHFTwqw6l8b9-73" value="Exercise set ended" style="edgeLabel;html=1;align=center;verticalAlign=middle;resizable=0;points=[];fontFamily=Helvetica;fontSize=11;fontColor=default;labelBackgroundColor=default;" parent="ispf3cTAjHFTwqw6l8b9-72" vertex="1" connectable="0">
          <mxGeometry x="-0.2" y="1" relative="1" as="geometry">
            <mxPoint as="offset" />
          </mxGeometry>
        </mxCell>
        <mxCell id="ispf3cTAjHFTwqw6l8b9-74" style="edgeStyle=orthogonalEdgeStyle;shape=connector;rounded=0;orthogonalLoop=1;jettySize=auto;html=1;exitX=0.5;exitY=1;exitDx=0;exitDy=0;entryX=0;entryY=0.5;entryDx=0;entryDy=0;strokeColor=default;align=center;verticalAlign=middle;fontFamily=Helvetica;fontSize=11;fontColor=default;labelBackgroundColor=default;startArrow=none;startFill=0;endArrow=classic;endFill=1;" parent="1" source="ispf3cTAjHFTwqw6l8b9-69" target="ispf3cTAjHFTwqw6l8b9-47" edge="1">
          <mxGeometry relative="1" as="geometry">
            <Array as="points">
              <mxPoint x="670" y="550" />
              <mxPoint x="120" y="550" />
              <mxPoint x="120" y="460" />
            </Array>
          </mxGeometry>
        </mxCell>
        <mxCell id="ispf3cTAjHFTwqw6l8b9-75" value="Still exercise&lt;div&gt;to complete&lt;/div&gt;" style="edgeLabel;html=1;align=center;verticalAlign=middle;resizable=0;points=[];fontFamily=Helvetica;fontSize=11;fontColor=default;labelBackgroundColor=default;" parent="ispf3cTAjHFTwqw6l8b9-74" vertex="1" connectable="0">
          <mxGeometry x="-0.9351" y="-1" relative="1" as="geometry">
            <mxPoint as="offset" />
          </mxGeometry>
        </mxCell>
        <mxCell id="ispf3cTAjHFTwqw6l8b9-101" style="edgeStyle=orthogonalEdgeStyle;shape=connector;rounded=0;orthogonalLoop=1;jettySize=auto;html=1;exitX=1;exitY=0.5;exitDx=0;exitDy=0;entryX=1;entryY=0.5;entryDx=0;entryDy=0;strokeColor=default;align=center;verticalAlign=middle;fontFamily=Helvetica;fontSize=11;fontColor=default;labelBackgroundColor=default;startArrow=none;startFill=0;endArrow=classic;endFill=1;" parent="1" source="ispf3cTAjHFTwqw6l8b9-69" target="ispf3cTAjHFTwqw6l8b9-100" edge="1">
          <mxGeometry relative="1" as="geometry" />
        </mxCell>
        <mxCell id="ispf3cTAjHFTwqw6l8b9-102" value="Still exercises to complete but is detected&amp;nbsp;&lt;div&gt;the need of a break&lt;/div&gt;" style="edgeLabel;html=1;align=center;verticalAlign=middle;resizable=0;points=[];fontFamily=Helvetica;fontSize=11;fontColor=default;labelBackgroundColor=default;" parent="ispf3cTAjHFTwqw6l8b9-101" vertex="1" connectable="0">
          <mxGeometry x="-0.0556" relative="1" as="geometry">
            <mxPoint as="offset" />
          </mxGeometry>
        </mxCell>
        <mxCell id="ispf3cTAjHFTwqw6l8b9-69" value="" style="rhombus;whiteSpace=wrap;html=1;fontFamily=Helvetica;fontSize=11;fontColor=default;labelBackgroundColor=default;" parent="1" vertex="1">
          <mxGeometry x="640" y="435" width="60" height="60" as="geometry" />
        </mxCell>
        <mxCell id="ispf3cTAjHFTwqw6l8b9-90" value="" style="group" parent="1" vertex="1" connectable="0">
          <mxGeometry x="410" y="55" width="120" height="60" as="geometry" />
        </mxCell>
        <mxCell id="ispf3cTAjHFTwqw6l8b9-76" value="Exercise Set" style="rounded=1;whiteSpace=wrap;html=1;fontFamily=Helvetica;fontSize=11;fontColor=default;labelBackgroundColor=default;" parent="ispf3cTAjHFTwqw6l8b9-90" vertex="1">
          <mxGeometry width="120" height="60" as="geometry" />
        </mxCell>
        <mxCell id="ispf3cTAjHFTwqw6l8b9-80" value="" style="group" parent="ispf3cTAjHFTwqw6l8b9-90" vertex="1" connectable="0">
          <mxGeometry x="60" y="45" width="50" height="10" as="geometry" />
        </mxCell>
        <mxCell id="ispf3cTAjHFTwqw6l8b9-79" style="edgeStyle=orthogonalEdgeStyle;shape=connector;rounded=0;orthogonalLoop=1;jettySize=auto;html=1;exitX=1;exitY=0.5;exitDx=0;exitDy=0;entryX=0;entryY=0.5;entryDx=0;entryDy=0;strokeColor=default;align=center;verticalAlign=middle;fontFamily=Helvetica;fontSize=11;fontColor=default;labelBackgroundColor=default;startArrow=none;startFill=0;endArrow=none;endFill=0;" parent="ispf3cTAjHFTwqw6l8b9-80" source="ispf3cTAjHFTwqw6l8b9-77" target="ispf3cTAjHFTwqw6l8b9-78" edge="1">
          <mxGeometry relative="1" as="geometry" />
        </mxCell>
        <mxCell id="ispf3cTAjHFTwqw6l8b9-77" value="" style="rounded=1;whiteSpace=wrap;html=1;fontFamily=Helvetica;fontSize=11;fontColor=default;labelBackgroundColor=default;" parent="ispf3cTAjHFTwqw6l8b9-80" vertex="1">
          <mxGeometry width="20" height="10" as="geometry" />
        </mxCell>
        <mxCell id="ispf3cTAjHFTwqw6l8b9-78" value="" style="rounded=1;whiteSpace=wrap;html=1;fontFamily=Helvetica;fontSize=11;fontColor=default;labelBackgroundColor=default;" parent="ispf3cTAjHFTwqw6l8b9-80" vertex="1">
          <mxGeometry x="30" width="20" height="10" as="geometry" />
        </mxCell>
        <mxCell id="ispf3cTAjHFTwqw6l8b9-98" style="edgeStyle=orthogonalEdgeStyle;shape=connector;rounded=0;orthogonalLoop=1;jettySize=auto;html=1;exitX=1;exitY=0.5;exitDx=0;exitDy=0;strokeColor=default;align=center;verticalAlign=middle;fontFamily=Helvetica;fontSize=11;fontColor=default;labelBackgroundColor=default;startArrow=none;startFill=0;endArrow=classic;endFill=1;" parent="1" source="ispf3cTAjHFTwqw6l8b9-97" target="ispf3cTAjHFTwqw6l8b9-38" edge="1">
          <mxGeometry relative="1" as="geometry" />
        </mxCell>
        <mxCell id="ispf3cTAjHFTwqw6l8b9-97" value="Showing&amp;nbsp;&lt;div&gt;exercise set statistics&lt;/div&gt;" style="html=1;align=center;verticalAlign=top;rounded=1;absoluteArcSize=1;arcSize=10;dashed=0;whiteSpace=wrap;" parent="1" vertex="1">
          <mxGeometry x="680" y="355" width="130" height="40" as="geometry" />
        </mxCell>
        <mxCell id="ispf3cTAjHFTwqw6l8b9-99" value="The set statistics are the same statistics sent to the database.&lt;div&gt;Statistics like:&lt;/div&gt;&lt;div&gt;&lt;ul&gt;&lt;li&gt;Time of completion&lt;/li&gt;&lt;li&gt;Accuracy in exercise type&lt;/li&gt;&lt;li&gt;Comparison with previous attempts&lt;/li&gt;&lt;li&gt;Degree of distraction (High or low)&lt;/li&gt;&lt;li&gt;Break time taken&lt;/li&gt;&lt;/ul&gt;&lt;/div&gt;" style="shape=note;whiteSpace=wrap;html=1;backgroundOutline=1;darkOpacity=0.05;fontFamily=Helvetica;fontSize=11;fontColor=default;labelBackgroundColor=default;align=left;" parent="1" vertex="1">
          <mxGeometry x="880" y="383" width="200" height="225" as="geometry" />
        </mxCell>
        <mxCell id="ispf3cTAjHFTwqw6l8b9-103" style="edgeStyle=orthogonalEdgeStyle;shape=connector;rounded=0;orthogonalLoop=1;jettySize=auto;html=1;exitX=0;exitY=0.5;exitDx=0;exitDy=0;entryX=0;entryY=0.5;entryDx=0;entryDy=0;strokeColor=default;align=center;verticalAlign=middle;fontFamily=Helvetica;fontSize=11;fontColor=default;labelBackgroundColor=default;startArrow=none;startFill=0;endArrow=classic;endFill=1;" parent="1" source="ispf3cTAjHFTwqw6l8b9-100" target="ispf3cTAjHFTwqw6l8b9-47" edge="1">
          <mxGeometry relative="1" as="geometry" />
        </mxCell>
        <mxCell id="ispf3cTAjHFTwqw6l8b9-104" value="Clicked Continue exercises" style="edgeLabel;html=1;align=center;verticalAlign=middle;resizable=0;points=[];fontFamily=Helvetica;fontSize=11;fontColor=default;labelBackgroundColor=default;" parent="ispf3cTAjHFTwqw6l8b9-103" vertex="1" connectable="0">
          <mxGeometry x="-0.607" y="-2" relative="1" as="geometry">
            <mxPoint as="offset" />
          </mxGeometry>
        </mxCell>
        <mxCell id="ispf3cTAjHFTwqw6l8b9-106" style="edgeStyle=orthogonalEdgeStyle;shape=connector;rounded=0;orthogonalLoop=1;jettySize=auto;html=1;exitX=0.5;exitY=1;exitDx=0;exitDy=0;strokeColor=default;align=center;verticalAlign=middle;fontFamily=Helvetica;fontSize=11;fontColor=default;labelBackgroundColor=default;startArrow=none;startFill=0;endArrow=classic;endFill=1;" parent="1" source="ispf3cTAjHFTwqw6l8b9-100" target="ispf3cTAjHFTwqw6l8b9-105" edge="1">
          <mxGeometry relative="1" as="geometry" />
        </mxCell>
        <mxCell id="ispf3cTAjHFTwqw6l8b9-107" value="Clicked &quot;Take Break&quot;" style="edgeLabel;html=1;align=center;verticalAlign=middle;resizable=0;points=[];fontFamily=Helvetica;fontSize=11;fontColor=default;labelBackgroundColor=default;" parent="ispf3cTAjHFTwqw6l8b9-106" vertex="1" connectable="0">
          <mxGeometry x="-0.0755" y="1" relative="1" as="geometry">
            <mxPoint x="36" as="offset" />
          </mxGeometry>
        </mxCell>
        <mxCell id="ispf3cTAjHFTwqw6l8b9-100" value="Shows&lt;div&gt;The &quot;Need Break?&quot; screen&lt;/div&gt;" style="html=1;align=center;verticalAlign=top;rounded=1;absoluteArcSize=1;arcSize=10;dashed=0;whiteSpace=wrap;" parent="1" vertex="1">
          <mxGeometry x="490" y="570" width="105" height="60" as="geometry" />
        </mxCell>
        <mxCell id="ispf3cTAjHFTwqw6l8b9-110" style="edgeStyle=orthogonalEdgeStyle;shape=connector;rounded=0;orthogonalLoop=1;jettySize=auto;html=1;strokeColor=default;align=center;verticalAlign=middle;fontFamily=Helvetica;fontSize=11;fontColor=default;labelBackgroundColor=default;startArrow=none;startFill=0;endArrow=classic;endFill=1;entryX=0;entryY=0.5;entryDx=0;entryDy=0;" parent="1" target="ispf3cTAjHFTwqw6l8b9-47" edge="1">
          <mxGeometry relative="1" as="geometry">
            <mxPoint x="110" y="470" as="targetPoint" />
            <mxPoint x="220" y="650" as="sourcePoint" />
            <Array as="points">
              <mxPoint x="120" y="650" />
              <mxPoint x="120" y="460" />
            </Array>
          </mxGeometry>
        </mxCell>
        <mxCell id="ispf3cTAjHFTwqw6l8b9-111" value="Clicked Continue exercises" style="edgeLabel;html=1;align=center;verticalAlign=middle;resizable=0;points=[];fontFamily=Helvetica;fontSize=11;fontColor=default;labelBackgroundColor=default;" parent="ispf3cTAjHFTwqw6l8b9-110" vertex="1" connectable="0">
          <mxGeometry x="-0.519" y="-1" relative="1" as="geometry">
            <mxPoint as="offset" />
          </mxGeometry>
        </mxCell>
        <mxCell id="ispf3cTAjHFTwqw6l8b9-113" value="" style="edgeStyle=orthogonalEdgeStyle;shape=connector;rounded=0;orthogonalLoop=1;jettySize=auto;html=1;strokeColor=default;align=center;verticalAlign=middle;fontFamily=Helvetica;fontSize=11;fontColor=default;labelBackgroundColor=default;startArrow=none;startFill=0;endArrow=classic;endFill=1;" parent="1" source="ispf3cTAjHFTwqw6l8b9-105" target="ispf3cTAjHFTwqw6l8b9-112" edge="1">
          <mxGeometry relative="1" as="geometry" />
        </mxCell>
        <mxCell id="ispf3cTAjHFTwqw6l8b9-114" value="Timer&amp;nbsp;&lt;div&gt;ended&lt;/div&gt;" style="edgeLabel;html=1;align=center;verticalAlign=middle;resizable=0;points=[];fontFamily=Helvetica;fontSize=11;fontColor=default;labelBackgroundColor=default;" parent="ispf3cTAjHFTwqw6l8b9-113" vertex="1" connectable="0">
          <mxGeometry x="0.079" y="3" relative="1" as="geometry">
            <mxPoint as="offset" />
          </mxGeometry>
        </mxCell>
        <mxCell id="ispf3cTAjHFTwqw6l8b9-105" value="Shows timer" style="html=1;align=center;verticalAlign=top;rounded=1;absoluteArcSize=1;arcSize=10;dashed=0;whiteSpace=wrap;" parent="1" vertex="1">
          <mxGeometry x="365" y="630" width="105" height="40" as="geometry" />
        </mxCell>
        <mxCell id="ispf3cTAjHFTwqw6l8b9-112" value="Shows timer ended" style="html=1;align=center;verticalAlign=top;rounded=1;absoluteArcSize=1;arcSize=10;dashed=0;whiteSpace=wrap;" parent="1" vertex="1">
          <mxGeometry x="220" y="630" width="80" height="40" as="geometry" />
        </mxCell>
        <mxCell id="zLHpc_LP7oTZizmcBeUN-1" value="We dont contemplate reapeating a recording since we want to emulate a speaking exercise done in class" style="shape=note;whiteSpace=wrap;html=1;backgroundOutline=1;darkOpacity=0.05;fontFamily=Helvetica;fontSize=11;fontColor=default;labelBackgroundColor=default;align=left;" vertex="1" parent="1">
          <mxGeometry x="335" y="190" width="175" height="100" as="geometry" />
        </mxCell>
        <mxCell id="zLHpc_LP7oTZizmcBeUN-7" value="" style="group" vertex="1" connectable="0" parent="1">
          <mxGeometry x="200" y="55" width="120" height="60" as="geometry" />
        </mxCell>
        <mxCell id="zLHpc_LP7oTZizmcBeUN-8" value="Showing start screen" style="rounded=1;whiteSpace=wrap;html=1;fontFamily=Helvetica;fontSize=11;fontColor=default;labelBackgroundColor=default;" vertex="1" parent="zLHpc_LP7oTZizmcBeUN-7">
          <mxGeometry width="120" height="60" as="geometry" />
        </mxCell>
        <mxCell id="zLHpc_LP7oTZizmcBeUN-14" style="edgeStyle=orthogonalEdgeStyle;rounded=0;orthogonalLoop=1;jettySize=auto;html=1;exitX=1;exitY=0.5;exitDx=0;exitDy=0;entryX=0.5;entryY=1;entryDx=0;entryDy=0;" edge="1" parent="1" source="ispf3cTAjHFTwqw6l8b9-76" target="zLHpc_LP7oTZizmcBeUN-8">
          <mxGeometry relative="1" as="geometry" />
        </mxCell>
        <mxCell id="zLHpc_LP7oTZizmcBeUN-15" value="Timer end" style="edgeLabel;html=1;align=center;verticalAlign=middle;resizable=0;points=[];" vertex="1" connectable="0" parent="zLHpc_LP7oTZizmcBeUN-14">
          <mxGeometry x="0.0641" y="-2" relative="1" as="geometry">
            <mxPoint as="offset" />
          </mxGeometry>
        </mxCell>
      </root>
    </mxGraphModel>
  </diagram>
</mxfile>
